<svg width="940" height="428" viewBox="0 0 940 428" fill="none" xmlns="http://www.w3.org/2000/svg">
<rect width="940" height="428" rx="50" fill="#FAF8F2"/>
<path d="M280.48 136V92.8H320.08V99.28H287.02V111.16H313.6V117.64H287.02V129.52H320.08V136H280.48ZM326.178 136V101.2H353.777C355.218 101.2 356.518 101.56 357.678 102.28C358.878 103 359.818 103.94 360.498 105.1C361.218 106.26 361.578 107.56 361.578 109V136H355.098V109.18C355.098 108.78 354.938 108.44 354.617 108.16C354.338 107.84 353.998 107.68 353.598 107.68H334.158C333.758 107.68 333.398 107.84 333.078 108.16C332.798 108.44 332.658 108.78 332.658 109.18V136H326.178ZM390.697 149.74V143.2H411.997C412.397 143.2 412.737 143.04 413.017 142.72C413.337 142.44 413.497 142.1 413.497 141.7V136H392.377C390.977 136 389.677 135.66 388.477 134.98C387.277 134.26 386.317 133.3 385.597 132.1C384.917 130.9 384.577 129.6 384.577 128.2V109C384.577 107.56 384.937 106.26 385.657 105.1C386.377 103.94 387.317 103 388.477 102.28C389.677 101.56 390.977 101.2 392.377 101.2H412.177C413.617 101.2 414.917 101.56 416.077 102.28C417.277 103 418.217 103.94 418.897 105.1C419.617 106.26 419.977 107.56 419.977 109V141.94C419.977 143.38 419.617 144.68 418.897 145.84C418.217 147.04 417.277 147.98 416.077 148.66C414.917 149.38 413.617 149.74 412.177 149.74H390.697ZM392.557 129.52H411.997C412.397 129.52 412.737 129.38 413.017 129.1C413.337 128.78 413.497 128.42 413.497 128.02V109.18C413.497 108.78 413.337 108.44 413.017 108.16C412.737 107.84 412.397 107.68 411.997 107.68H392.557C392.157 107.68 391.797 107.84 391.477 108.16C391.197 108.44 391.057 108.78 391.057 109.18V128.02C391.057 128.42 391.197 128.78 391.477 129.1C391.797 129.38 392.157 129.52 392.557 129.52ZM432.881 136C431.441 136 430.121 135.64 428.921 134.92C427.761 134.2 426.821 133.26 426.101 132.1C425.421 130.94 425.081 129.64 425.081 128.2V115.36H453.941V109.18C453.941 108.78 453.801 108.44 453.521 108.16C453.241 107.84 452.901 107.68 452.501 107.68H425.081V101.2H452.681C454.121 101.2 455.421 101.56 456.581 102.28C457.781 102.96 458.721 103.9 459.401 105.1C460.121 106.3 460.481 107.6 460.481 109V136H432.881ZM433.061 129.52H453.941V121.42H431.561V128.02C431.561 128.42 431.701 128.78 431.981 129.1C432.301 129.38 432.661 129.52 433.061 129.52ZM466.099 136V101.2H493.699C495.139 101.2 496.439 101.56 497.599 102.28C498.799 103 499.739 103.94 500.419 105.1C501.139 106.26 501.499 107.56 501.499 109V136H495.019V109.18C495.019 108.78 494.859 108.44 494.539 108.16C494.259 107.84 493.919 107.68 493.519 107.68H474.079C473.679 107.68 473.319 107.84 472.999 108.16C472.719 108.44 472.579 108.78 472.579 109.18V136H466.099ZM512.982 149.74V143.2H534.282C534.682 143.2 535.022 143.04 535.302 142.72C535.622 142.44 535.782 142.1 535.782 141.7V136H514.662C513.262 136 511.962 135.66 510.762 134.98C509.562 134.26 508.602 133.3 507.882 132.1C507.202 130.9 506.862 129.6 506.862 128.2V109C506.862 107.56 507.222 106.26 507.942 105.1C508.662 103.94 509.602 103 510.762 102.28C511.962 101.56 513.262 101.2 514.662 101.2H534.462C535.902 101.2 537.202 101.56 538.362 102.28C539.562 103 540.502 103.94 541.182 105.1C541.902 106.26 542.262 107.56 542.262 109V141.94C542.262 143.38 541.902 144.68 541.182 145.84C540.502 147.04 539.562 147.98 538.362 148.66C537.202 149.38 535.902 149.74 534.462 149.74H512.982ZM514.842 129.52H534.282C534.682 129.52 535.022 129.38 535.302 129.1C535.622 128.78 535.782 128.42 535.782 128.02V109.18C535.782 108.78 535.622 108.44 535.302 108.16C535.022 107.84 534.682 107.68 534.282 107.68H514.842C514.442 107.68 514.082 107.84 513.762 108.16C513.482 108.44 513.342 108.78 513.342 109.18V128.02C513.342 128.42 513.482 128.78 513.762 129.1C514.082 129.38 514.442 129.52 514.842 129.52ZM573.742 136C572.302 136 570.982 135.64 569.782 134.92C568.622 134.2 567.682 133.26 566.962 132.1C566.282 130.94 565.942 129.64 565.942 128.2V90.22H572.422V101.2H586.702V107.68H572.422V128.02C572.422 128.42 572.562 128.78 572.842 129.1C573.162 129.38 573.522 129.52 573.922 129.52H586.702V136H573.742ZM591.546 136V101.2H598.026V136H591.546ZM591.546 96.28V89.8H598.026V96.28H591.546ZM612.94 136C611.5 136 610.2 135.64 609.04 134.92C607.88 134.2 606.94 133.26 606.22 132.1C605.5 130.94 605.14 129.64 605.14 128.2V89.8H611.62V128.02C611.62 128.42 611.76 128.78 612.04 129.1C612.36 129.38 612.72 129.52 613.12 129.52H619.42V136H612.94ZM629.585 124.12V120.76C629.585 119.32 629.925 118.02 630.605 116.86C631.325 115.66 632.265 114.72 633.425 114.04C634.625 113.36 635.945 113.02 637.385 113.02H652.745C653.185 113.02 653.545 112.88 653.825 112.6C654.105 112.28 654.245 111.92 654.245 111.52V100.84C654.245 100.44 654.105 100.1 653.825 99.82C653.545 99.5 653.185 99.34 652.745 99.34H622.805V92.8L652.925 92.86C654.365 92.86 655.665 93.22 656.825 93.94C658.025 94.62 658.965 95.56 659.645 96.76C660.365 97.92 660.725 99.22 660.725 100.66V111.7C660.725 113.1 660.365 114.4 659.645 115.6C658.965 116.76 658.025 117.7 656.825 118.42C655.665 119.14 654.365 119.5 652.925 119.5H637.565C637.165 119.5 636.805 119.66 636.485 119.98C636.205 120.26 636.065 120.6 636.065 121V124.12H629.585ZM629.585 136V129.52H636.065V136H629.585Z" fill="black"/>
</svg>
