<svg width="244" height="96" viewBox="0 0 244 96" fill="none" xmlns="http://www.w3.org/2000/svg">
<rect x="2" y="2" width="240" height="92" rx="46" fill="#FAF8F2"/>
<rect x="2" y="2" width="240" height="92" rx="46" stroke="#014900" stroke-width="4"/>
<path d="M50.37 61C49.53 61 48.7717 60.79 48.095 60.37C47.4183 59.95 46.87 59.4017 46.45 58.725C46.03 58.0483 45.82 57.29 45.82 56.45V34.05H49.6V56.345C49.6 56.5783 49.6817 56.7883 49.845 56.975C50.0317 57.1383 50.2417 57.22 50.475 57.22H54.15V61H50.37ZM61.17 61C60.33 61 59.5716 60.79 58.895 60.37C58.2183 59.95 57.67 59.4017 57.25 58.725C56.83 58.0483 56.62 57.29 56.62 56.45V45.25C56.62 44.41 56.83 43.6517 57.25 42.975C57.67 42.2983 58.2183 41.75 58.895 41.33C59.5716 40.91 60.33 40.7 61.17 40.7H72.72C73.56 40.7 74.3183 40.91 74.995 41.33C75.695 41.7267 76.2433 42.275 76.64 42.975C77.06 43.675 77.27 44.4333 77.27 45.25V52.74H60.4V56.345C60.4 56.5783 60.4816 56.7883 60.645 56.975C60.8316 57.1383 61.0416 57.22 61.275 57.22H77.27V61H61.17ZM60.4 49.205H73.455V45.355C73.455 45.1217 73.3733 44.9233 73.21 44.76C73.0466 44.5733 72.8483 44.48 72.615 44.48H61.275C61.0416 44.48 60.8316 44.5733 60.645 44.76C60.4816 44.9233 60.4 45.1217 60.4 45.355V49.205ZM85.4734 61C84.6334 61 83.8634 60.79 83.1634 60.37C82.4867 59.95 81.9384 59.4017 81.5184 58.725C81.1217 58.0483 80.9234 57.29 80.9234 56.45V34.295H84.7034V40.7H93.0334V44.48H84.7034V56.345C84.7034 56.5783 84.785 56.7883 84.9484 56.975C85.135 57.1383 85.345 57.22 85.5784 57.22H93.0334V61H85.4734ZM100.303 61C99.4632 61 98.7049 60.79 98.0282 60.37C97.3516 59.95 96.8032 59.4017 96.3832 58.725C95.9632 58.0483 95.7532 57.29 95.7532 56.45V55.925H99.5332V56.345C99.5332 56.5783 99.6149 56.7883 99.7782 56.975C99.9649 57.1383 100.175 57.22 100.408 57.22H111.748C111.982 57.22 112.18 57.1383 112.343 56.975C112.507 56.7883 112.588 56.5783 112.588 56.345V53.615C112.588 53.3817 112.507 53.1833 112.343 53.02C112.18 52.8333 111.982 52.74 111.748 52.74H100.303C99.4632 52.74 98.7049 52.5417 98.0282 52.145C97.3516 51.725 96.8032 51.1767 96.3832 50.5C95.9632 49.8 95.7532 49.03 95.7532 48.19V45.25C95.7532 44.41 95.9632 43.6517 96.3832 42.975C96.8032 42.2983 97.3516 41.75 98.0282 41.33C98.7049 40.91 99.4632 40.7 100.303 40.7H111.853C112.693 40.7 113.452 40.91 114.128 41.33C114.828 41.75 115.377 42.2983 115.773 42.975C116.193 43.6517 116.403 44.41 116.403 45.25V45.775H112.588V45.355C112.588 45.1217 112.507 44.9233 112.343 44.76C112.18 44.5733 111.982 44.48 111.748 44.48H100.408C100.175 44.48 99.9649 44.5733 99.7782 44.76C99.6149 44.9233 99.5332 45.1217 99.5332 45.355V48.085C99.5332 48.3183 99.6149 48.5283 99.7782 48.715C99.9649 48.8783 100.175 48.96 100.408 48.96H111.853C112.693 48.96 113.452 49.17 114.128 49.59C114.828 49.9867 115.377 50.535 115.773 51.235C116.193 51.9117 116.403 52.67 116.403 53.51V56.45C116.403 57.29 116.193 58.0483 115.773 58.725C115.377 59.4017 114.828 59.95 114.128 60.37C113.452 60.79 112.693 61 111.853 61H100.303ZM133.224 69.015V65.2H145.649C145.882 65.2 146.08 65.1067 146.244 64.92C146.43 64.7567 146.524 64.5583 146.524 64.325V61H134.204C133.387 61 132.629 60.8017 131.929 60.405C131.229 59.985 130.669 59.425 130.249 58.725C129.852 58.025 129.654 57.2667 129.654 56.45V45.25C129.654 44.41 129.864 43.6517 130.284 42.975C130.704 42.2983 131.252 41.75 131.929 41.33C132.629 40.91 133.387 40.7 134.204 40.7H145.754C146.594 40.7 147.352 40.91 148.029 41.33C148.729 41.75 149.277 42.2983 149.674 42.975C150.094 43.6517 150.304 44.41 150.304 45.25V64.465C150.304 65.305 150.094 66.0633 149.674 66.74C149.277 67.44 148.729 67.9883 148.029 68.385C147.352 68.805 146.594 69.015 145.754 69.015H133.224ZM134.309 57.22H145.649C145.882 57.22 146.08 57.1383 146.244 56.975C146.43 56.7883 146.524 56.5783 146.524 56.345V45.355C146.524 45.1217 146.43 44.9233 146.244 44.76C146.08 44.5733 145.882 44.48 145.649 44.48H134.309C134.075 44.48 133.865 44.5733 133.679 44.76C133.515 44.9233 133.434 45.1217 133.434 45.355V56.345C133.434 56.5783 133.515 56.7883 133.679 56.975C133.865 57.1383 134.075 57.22 134.309 57.22ZM157.728 61C156.888 61 156.129 60.79 155.453 60.37C154.776 59.95 154.228 59.4017 153.808 58.725C153.388 58.0483 153.178 57.29 153.178 56.45V45.25C153.178 44.41 153.388 43.6517 153.808 42.975C154.228 42.2983 154.776 41.75 155.453 41.33C156.129 40.91 156.888 40.7 157.728 40.7H169.278C170.118 40.7 170.876 40.91 171.553 41.33C172.253 41.7267 172.801 42.275 173.198 42.975C173.618 43.675 173.828 44.4333 173.828 45.25V56.45C173.828 57.29 173.618 58.0483 173.198 58.725C172.801 59.4017 172.253 59.95 171.553 60.37C170.876 60.79 170.118 61 169.278 61H157.728ZM157.833 57.22H169.173C169.406 57.22 169.604 57.1383 169.768 56.975C169.931 56.7883 170.013 56.5783 170.013 56.345V45.355C170.013 45.1217 169.931 44.9233 169.768 44.76C169.604 44.5733 169.406 44.48 169.173 44.48H157.833C157.599 44.48 157.389 44.5733 157.203 44.76C157.039 44.9233 156.958 45.1217 156.958 45.355V56.345C156.958 56.5783 157.039 56.7883 157.203 56.975C157.389 57.1383 157.599 57.22 157.833 57.22ZM181.209 61C180.369 61 179.611 60.79 178.934 60.37C178.257 59.95 177.709 59.4017 177.289 58.725C176.869 58.0483 176.659 57.29 176.659 56.45V45.25C176.659 44.41 176.869 43.6517 177.289 42.975C177.709 42.2983 178.257 41.75 178.934 41.33C179.611 40.91 180.369 40.7 181.209 40.7H192.759C193.599 40.7 194.357 40.91 195.034 41.33C195.734 41.7267 196.282 42.275 196.679 42.975C197.099 43.675 197.309 44.4333 197.309 45.25V56.45C197.309 57.29 197.099 58.0483 196.679 58.725C196.282 59.4017 195.734 59.95 195.034 60.37C194.357 60.79 193.599 61 192.759 61H181.209ZM181.314 57.22H192.654C192.887 57.22 193.086 57.1383 193.249 56.975C193.412 56.7883 193.494 56.5783 193.494 56.345V45.355C193.494 45.1217 193.412 44.9233 193.249 44.76C193.086 44.5733 192.887 44.48 192.654 44.48H181.314C181.081 44.48 180.871 44.5733 180.684 44.76C180.521 44.9233 180.439 45.1217 180.439 45.355V56.345C180.439 56.5783 180.521 56.7883 180.684 56.975C180.871 57.1383 181.081 57.22 181.314 57.22Z" fill="black"/>
</svg>
