<svg width="1036" height="674" viewBox="0 0 1036 674" fill="none" xmlns="http://www.w3.org/2000/svg">
<rect width="1036" height="674" rx="50" fill="#FAF8F2"/>
<path d="M133.12 126L108.1 82.8H115.66L136.36 118.68L156.94 82.8H164.5L139.54 126H133.12ZM175.923 126C174.483 126 173.183 125.64 172.023 124.92C170.863 124.2 169.923 123.26 169.203 122.1C168.483 120.94 168.123 119.64 168.123 118.2V99C168.123 97.56 168.483 96.26 169.203 95.1C169.923 93.94 170.863 93 172.023 92.28C173.183 91.56 174.483 91.2 175.923 91.2H195.723C197.163 91.2 198.463 91.56 199.623 92.28C200.823 92.96 201.763 93.9 202.443 95.1C203.163 96.3 203.523 97.6 203.523 99V111.84H174.603V118.02C174.603 118.42 174.743 118.78 175.023 119.1C175.343 119.38 175.703 119.52 176.103 119.52H203.523V126H175.923ZM174.603 105.78H196.983V99.18C196.983 98.78 196.843 98.44 196.563 98.16C196.283 97.84 195.943 97.68 195.543 97.68H176.103C175.703 97.68 175.343 97.84 175.023 98.16C174.743 98.44 174.603 98.78 174.603 99.18V105.78ZM216.236 126C214.796 126 213.496 125.64 212.336 124.92C211.176 124.2 210.236 123.26 209.516 122.1C208.796 120.94 208.436 119.64 208.436 118.2V79.8H214.916V118.02C214.916 118.42 215.056 118.78 215.336 119.1C215.656 119.38 216.016 119.52 216.416 119.52H222.716V126H216.236ZM227.482 126V79.8H233.962V105.36H241.762L254.782 91.2H262.222V92.4L247.522 108.6L262.222 124.8V126H254.782L241.762 111.84H233.962V126H227.482ZM273.891 126C272.451 126 271.151 125.64 269.991 124.92C268.831 124.2 267.891 123.26 267.171 122.1C266.451 120.94 266.091 119.64 266.091 118.2V99C266.091 97.56 266.451 96.26 267.171 95.1C267.891 93.94 268.831 93 269.991 92.28C271.151 91.56 272.451 91.2 273.891 91.2H293.691C295.131 91.2 296.431 91.56 297.591 92.28C298.791 92.96 299.731 93.9 300.411 95.1C301.131 96.3 301.491 97.6 301.491 99V118.2C301.491 119.64 301.131 120.94 300.411 122.1C299.731 123.26 298.791 124.2 297.591 124.92C296.431 125.64 295.131 126 293.691 126H273.891ZM274.071 119.52H293.511C293.911 119.52 294.251 119.38 294.531 119.1C294.811 118.78 294.951 118.42 294.951 118.02V99.18C294.951 98.78 294.811 98.44 294.531 98.16C294.251 97.84 293.911 97.68 293.511 97.68H274.071C273.671 97.68 273.311 97.84 272.991 98.16C272.711 98.44 272.571 98.78 272.571 99.18V118.02C272.571 118.42 272.711 118.78 272.991 119.1C273.311 119.38 273.671 119.52 274.071 119.52ZM307.814 126V91.2H352.274C353.754 91.2 355.074 91.56 356.234 92.28C357.394 93 358.314 93.94 358.994 95.1C359.714 96.26 360.074 97.56 360.074 99V126H353.654V99.18C353.654 98.78 353.494 98.44 353.174 98.16C352.894 97.84 352.554 97.68 352.154 97.68H338.774C338.334 97.68 337.974 97.84 337.694 98.16C337.414 98.44 337.274 98.78 337.274 99.18V126H330.734V99.18C330.734 98.78 330.574 98.44 330.254 98.16C329.974 97.84 329.634 97.68 329.234 97.68H315.794C315.394 97.68 315.054 97.84 314.774 98.16C314.494 98.44 314.354 98.78 314.354 99.18V126H307.814ZM364.767 126V91.2H409.227C410.707 91.2 412.027 91.56 413.187 92.28C414.347 93 415.267 93.94 415.947 95.1C416.667 96.26 417.027 97.56 417.027 99V126H410.607V99.18C410.607 98.78 410.447 98.44 410.127 98.16C409.847 97.84 409.507 97.68 409.107 97.68H395.727C395.287 97.68 394.927 97.84 394.647 98.16C394.367 98.44 394.227 98.78 394.227 99.18V126H387.687V99.18C387.687 98.78 387.527 98.44 387.207 98.16C386.927 97.84 386.587 97.68 386.187 97.68H372.747C372.347 97.68 372.007 97.84 371.727 98.16C371.447 98.44 371.307 98.78 371.307 99.18V126H364.767ZM430.161 126C428.721 126 427.421 125.64 426.261 124.92C425.101 124.2 424.161 123.26 423.441 122.1C422.721 120.94 422.361 119.64 422.361 118.2V99C422.361 97.56 422.721 96.26 423.441 95.1C424.161 93.94 425.101 93 426.261 92.28C427.421 91.56 428.721 91.2 430.161 91.2H449.961C451.401 91.2 452.701 91.56 453.861 92.28C455.061 92.96 456.001 93.9 456.681 95.1C457.401 96.3 457.761 97.6 457.761 99V111.84H428.841V118.02C428.841 118.42 428.981 118.78 429.261 119.1C429.581 119.38 429.941 119.52 430.341 119.52H457.761V126H430.161ZM428.841 105.78H451.221V99.18C451.221 98.78 451.081 98.44 450.801 98.16C450.521 97.84 450.181 97.68 449.781 97.68H430.341C429.941 97.68 429.581 97.84 429.261 98.16C428.981 98.44 428.841 98.78 428.841 99.18V105.78ZM464.084 126V91.2H491.684C493.124 91.2 494.424 91.56 495.584 92.28C496.784 93 497.724 93.94 498.404 95.1C499.124 96.26 499.484 97.56 499.484 99V126H493.004V99.18C493.004 98.78 492.844 98.44 492.524 98.16C492.244 97.84 491.904 97.68 491.504 97.68H472.064C471.664 97.68 471.304 97.84 470.984 98.16C470.704 98.44 470.564 98.78 470.564 99.18V126H464.084ZM531.003 126C529.563 126 528.243 125.64 527.043 124.92C525.883 124.2 524.943 123.26 524.223 122.1C523.543 120.94 523.203 119.64 523.203 118.2V80.22H529.683V91.2H543.963V97.68H529.683V118.02C529.683 118.42 529.823 118.78 530.103 119.1C530.423 119.38 530.783 119.52 531.183 119.52H543.963V126H531.003ZM548.808 126V91.2H555.288V126H548.808ZM548.808 86.28V79.8H555.288V86.28H548.808ZM570.201 126C568.761 126 567.461 125.64 566.301 124.92C565.141 124.2 564.201 123.26 563.481 122.1C562.761 120.94 562.401 119.64 562.401 118.2V79.8H568.881V118.02C568.881 118.42 569.021 118.78 569.301 119.1C569.621 119.38 569.981 119.52 570.381 119.52H576.681V126H570.201ZM606.589 126C605.149 126 603.829 125.64 602.629 124.92C601.469 124.2 600.529 123.26 599.809 122.1C599.129 120.94 598.789 119.64 598.789 118.2V80.22H605.269V91.2H619.549V97.68H605.269V118.02C605.269 118.42 605.409 118.78 605.689 119.1C606.009 119.38 606.369 119.52 606.769 119.52H619.549V126H606.589ZM632.662 126C631.222 126 629.902 125.64 628.702 124.92C627.542 124.2 626.602 123.26 625.882 122.1C625.202 120.94 624.862 119.64 624.862 118.2V105.36H653.722V99.18C653.722 98.78 653.582 98.44 653.302 98.16C653.022 97.84 652.682 97.68 652.282 97.68H624.862V91.2H652.462C653.902 91.2 655.202 91.56 656.362 92.28C657.562 92.96 658.502 93.9 659.182 95.1C659.902 96.3 660.262 97.6 660.262 99V126H632.662ZM632.842 119.52H653.722V111.42H631.342V118.02C631.342 118.42 631.482 118.78 631.762 119.1C632.082 119.38 632.442 119.52 632.842 119.52ZM673.385 126C671.945 126 670.645 125.64 669.485 124.92C668.325 124.2 667.385 123.26 666.665 122.1C665.945 120.94 665.585 119.64 665.585 118.2V79.8H672.065V118.02C672.065 118.42 672.205 118.78 672.485 119.1C672.805 119.38 673.165 119.52 673.565 119.52H679.865V126H673.385ZM709.473 126C708.033 126 706.733 125.64 705.573 124.92C704.413 124.2 703.473 123.26 702.753 122.1C702.033 120.94 701.673 119.64 701.673 118.2V117.3H708.153V118.02C708.153 118.42 708.293 118.78 708.573 119.1C708.893 119.38 709.253 119.52 709.653 119.52H729.093C729.493 119.52 729.833 119.38 730.113 119.1C730.393 118.78 730.533 118.42 730.533 118.02V113.34C730.533 112.94 730.393 112.6 730.113 112.32C729.833 112 729.493 111.84 729.093 111.84H709.473C708.033 111.84 706.733 111.5 705.573 110.82C704.413 110.1 703.473 109.16 702.753 108C702.033 106.8 701.673 105.48 701.673 104.04V99C701.673 97.56 702.033 96.26 702.753 95.1C703.473 93.94 704.413 93 705.573 92.28C706.733 91.56 708.033 91.2 709.473 91.2H729.273C730.713 91.2 732.013 91.56 733.173 92.28C734.373 93 735.313 93.94 735.993 95.1C736.713 96.26 737.073 97.56 737.073 99V99.9H730.533V99.18C730.533 98.78 730.393 98.44 730.113 98.16C729.833 97.84 729.493 97.68 729.093 97.68H709.653C709.253 97.68 708.893 97.84 708.573 98.16C708.293 98.44 708.153 98.78 708.153 99.18V103.86C708.153 104.26 708.293 104.62 708.573 104.94C708.893 105.22 709.253 105.36 709.653 105.36H729.273C730.713 105.36 732.013 105.72 733.173 106.44C734.373 107.12 735.313 108.06 735.993 109.26C736.713 110.42 737.073 111.72 737.073 113.16V118.2C737.073 119.64 736.713 120.94 735.993 122.1C735.313 123.26 734.373 124.2 733.173 124.92C732.013 125.64 730.713 126 729.273 126H709.473ZM743.166 139.8V91.2H770.766C772.206 91.2 773.506 91.56 774.666 92.28C775.866 93 776.806 93.94 777.486 95.1C778.206 96.26 778.566 97.56 778.566 99V118.2C778.566 119.64 778.206 120.94 777.486 122.1C776.806 123.26 775.866 124.2 774.666 124.92C773.506 125.64 772.206 126 770.766 126H749.646V139.8H743.166ZM751.146 119.52H770.586C770.986 119.52 771.326 119.38 771.606 119.1C771.926 118.78 772.086 118.42 772.086 118.02V99.18C772.086 98.78 771.926 98.44 771.606 98.16C771.326 97.84 770.986 97.68 770.586 97.68H751.146C750.746 97.68 750.386 97.84 750.066 98.16C749.786 98.44 749.646 98.78 749.646 99.18V118.02C749.646 118.42 749.786 118.78 750.066 119.1C750.386 119.38 750.746 119.52 751.146 119.52ZM783.417 126V91.2H789.897V126H783.417ZM783.417 86.28V79.8H789.897V86.28H783.417ZM804.811 126C803.371 126 802.071 125.64 800.911 124.92C799.751 124.2 798.811 123.26 798.091 122.1C797.371 120.94 797.011 119.64 797.011 118.2V79.8H803.491V118.02C803.491 118.42 803.631 118.78 803.911 119.1C804.231 119.38 804.591 119.52 804.991 119.52H811.291V126H804.811ZM823.971 126C822.531 126 821.231 125.64 820.071 124.92C818.911 124.2 817.971 123.26 817.251 122.1C816.531 120.94 816.171 119.64 816.171 118.2V79.8H822.651V118.02C822.651 118.42 822.791 118.78 823.071 119.1C823.391 119.38 823.751 119.52 824.151 119.52H830.451V126H823.971ZM842.485 126C841.045 126 839.745 125.64 838.585 124.92C837.425 124.2 836.485 123.26 835.765 122.1C835.045 120.94 834.685 119.64 834.685 118.2V99C834.685 97.56 835.045 96.26 835.765 95.1C836.485 93.94 837.425 93 838.585 92.28C839.745 91.56 841.045 91.2 842.485 91.2H862.285C863.725 91.2 865.025 91.56 866.185 92.28C867.385 92.96 868.325 93.9 869.005 95.1C869.725 96.3 870.085 97.6 870.085 99V111.84H841.165V118.02C841.165 118.42 841.305 118.78 841.585 119.1C841.905 119.38 842.265 119.52 842.665 119.52H870.085V126H842.485ZM841.165 105.78H863.545V99.18C863.545 98.78 863.405 98.44 863.125 98.16C862.845 97.84 862.505 97.68 862.105 97.68H842.665C842.265 97.68 841.905 97.84 841.585 98.16C841.305 98.44 841.165 98.78 841.165 99.18V105.78ZM884.148 126C882.708 126 881.388 125.64 880.188 124.92C879.028 124.2 878.088 123.26 877.368 122.1C876.688 120.94 876.348 119.64 876.348 118.2V80.22H882.828V91.2H897.108V97.68H882.828V118.02C882.828 118.42 882.968 118.78 883.248 119.1C883.568 119.38 883.928 119.52 884.328 119.52H897.108V126H884.148Z" fill="black"/>
<path d="M261.23 318C260.39 318 259.632 317.79 258.955 317.37C258.278 316.95 257.73 316.402 257.31 315.725C256.89 315.048 256.68 314.29 256.68 313.45V312.925H260.46V313.345C260.46 313.578 260.542 313.788 260.705 313.975C260.892 314.138 261.102 314.22 261.335 314.22H272.675C272.908 314.22 273.107 314.138 273.27 313.975C273.433 313.788 273.515 313.578 273.515 313.345V310.615C273.515 310.382 273.433 310.183 273.27 310.02C273.107 309.833 272.908 309.74 272.675 309.74H261.23C260.39 309.74 259.632 309.542 258.955 309.145C258.278 308.725 257.73 308.177 257.31 307.5C256.89 306.8 256.68 306.03 256.68 305.19V302.25C256.68 301.41 256.89 300.652 257.31 299.975C257.73 299.298 258.278 298.75 258.955 298.33C259.632 297.91 260.39 297.7 261.23 297.7H272.78C273.62 297.7 274.378 297.91 275.055 298.33C275.755 298.75 276.303 299.298 276.7 299.975C277.12 300.652 277.33 301.41 277.33 302.25V302.775H273.515V302.355C273.515 302.122 273.433 301.923 273.27 301.76C273.107 301.573 272.908 301.48 272.675 301.48H261.335C261.102 301.48 260.892 301.573 260.705 301.76C260.542 301.923 260.46 302.122 260.46 302.355V305.085C260.46 305.318 260.542 305.528 260.705 305.715C260.892 305.878 261.102 305.96 261.335 305.96H272.78C273.62 305.96 274.378 306.17 275.055 306.59C275.755 306.987 276.303 307.535 276.7 308.235C277.12 308.912 277.33 309.67 277.33 310.51V313.45C277.33 314.29 277.12 315.048 276.7 315.725C276.303 316.402 275.755 316.95 275.055 317.37C274.378 317.79 273.62 318 272.78 318H261.23ZM285.364 318C284.524 318 283.754 317.79 283.054 317.37C282.377 316.95 281.829 316.402 281.409 315.725C281.012 315.048 280.814 314.29 280.814 313.45V305.96H297.649V302.355C297.649 302.122 297.567 301.923 297.404 301.76C297.241 301.573 297.042 301.48 296.809 301.48H280.814V297.7H296.914C297.754 297.7 298.512 297.91 299.189 298.33C299.889 298.727 300.437 299.275 300.834 299.975C301.254 300.675 301.464 301.433 301.464 302.25V318H285.364ZM285.469 314.22H297.649V309.495H284.594V313.345C284.594 313.578 284.676 313.788 284.839 313.975C285.026 314.138 285.236 314.22 285.469 314.22ZM290.894 295.145C290.311 295.145 289.797 294.935 289.354 294.515C288.934 294.095 288.724 293.582 288.724 292.975V291.155C288.724 290.572 288.934 290.07 289.354 289.65C289.797 289.23 290.311 289.02 290.894 289.02H292.784C293.391 289.02 293.904 289.23 294.324 289.65C294.744 290.07 294.954 290.572 294.954 291.155V292.975C294.954 293.582 294.744 294.095 294.324 294.515C293.904 294.935 293.391 295.145 292.784 295.145H290.894ZM290.789 293.36H292.889C292.959 293.36 293.006 293.337 293.029 293.29C293.076 293.243 293.099 293.197 293.099 293.15V291.12C293.099 291.05 293.076 291.003 293.029 290.98C293.006 290.933 292.959 290.91 292.889 290.91H290.789C290.719 290.91 290.661 290.933 290.614 290.98C290.591 291.003 290.579 291.05 290.579 291.12V293.15C290.579 293.197 290.591 293.243 290.614 293.29C290.661 293.337 290.719 293.36 290.789 293.36ZM319.852 318C319.012 318 318.242 317.79 317.542 317.37C316.866 316.95 316.317 316.402 315.897 315.725C315.501 315.048 315.302 314.29 315.302 313.45V291.295H319.082V297.7H327.412V301.48H319.082V313.345C319.082 313.578 319.164 313.788 319.327 313.975C319.514 314.138 319.724 314.22 319.957 314.22H327.412V318H319.852ZM334.685 318C333.845 318 333.075 317.79 332.375 317.37C331.699 316.95 331.162 316.402 330.765 315.725C330.369 315.048 330.17 314.29 330.17 313.45V305.96H347.005V302.355C347.005 302.122 346.912 301.923 346.725 301.76C346.562 301.573 346.364 301.48 346.13 301.48H330.17V297.7H363.105C363.969 297.7 364.739 297.91 365.415 298.33C366.092 298.75 366.629 299.298 367.025 299.975C367.445 300.652 367.655 301.41 367.655 302.25V309.74H350.82V313.45C350.82 313.66 350.902 313.847 351.065 314.01C351.252 314.15 351.45 314.22 351.66 314.22H367.655V318H334.685ZM334.79 314.22H347.005V309.495H333.95V313.345C333.95 313.578 334.032 313.788 334.195 313.975C334.359 314.138 334.557 314.22 334.79 314.22ZM350.82 306.205H363.875V302.355C363.875 302.122 363.782 301.923 363.595 301.76C363.432 301.573 363.234 301.48 363 301.48H351.66C351.427 301.48 351.229 301.573 351.065 301.76C350.902 301.923 350.82 302.122 350.82 302.355V306.205ZM371.426 318V297.7H387.526C388.366 297.7 389.124 297.91 389.801 298.33C390.501 298.75 391.049 299.298 391.446 299.975C391.866 300.652 392.076 301.41 392.076 302.25V318H388.296V302.355C388.296 302.122 388.203 301.923 388.016 301.76C387.853 301.573 387.654 301.48 387.421 301.48H376.081C375.848 301.48 375.638 301.573 375.451 301.76C375.288 301.923 375.206 302.122 375.206 302.355V318H371.426ZM395.796 318V291.05H399.576V305.96H404.126L411.721 297.7H416.061V298.4L407.486 307.85L416.061 317.3V318H411.721L404.126 309.74H399.576V318H395.796ZM428.575 326.05V297.7H444.675C445.515 297.7 446.273 297.91 446.95 298.33C447.65 298.75 448.198 299.298 448.595 299.975C449.015 300.652 449.225 301.41 449.225 302.25V313.45C449.225 314.29 449.015 315.048 448.595 315.725C448.198 316.402 447.65 316.95 446.95 317.37C446.273 317.79 445.515 318 444.675 318H432.355V326.05H428.575ZM433.23 314.22H444.57C444.803 314.22 445.001 314.138 445.165 313.975C445.351 313.788 445.445 313.578 445.445 313.345V302.355C445.445 302.122 445.351 301.923 445.165 301.76C445.001 301.573 444.803 301.48 444.57 301.48H433.23C432.996 301.48 432.786 301.573 432.6 301.76C432.436 301.923 432.355 302.122 432.355 302.355V313.345C432.355 313.578 432.436 313.788 432.6 313.975C432.786 314.138 432.996 314.22 433.23 314.22ZM456.297 318C455.457 318 454.687 317.79 453.987 317.37C453.31 316.95 452.762 316.402 452.342 315.725C451.945 315.048 451.747 314.29 451.747 313.45V305.96H468.582V302.355C468.582 302.122 468.5 301.923 468.337 301.76C468.173 301.573 467.975 301.48 467.742 301.48H451.747V297.7H467.847C468.687 297.7 469.445 297.91 470.122 298.33C470.822 298.727 471.37 299.275 471.767 299.975C472.187 300.675 472.397 301.433 472.397 302.25V318H456.297ZM456.402 314.22H468.582V309.495H455.527V313.345C455.527 313.578 455.608 313.788 455.772 313.975C455.958 314.138 456.168 314.22 456.402 314.22ZM461.827 295.145C461.243 295.145 460.73 294.935 460.287 294.515C459.867 294.095 459.657 293.582 459.657 292.975V291.155C459.657 290.572 459.867 290.07 460.287 289.65C460.73 289.23 461.243 289.02 461.827 289.02H463.717C464.323 289.02 464.837 289.23 465.257 289.65C465.677 290.07 465.887 290.572 465.887 291.155V292.975C465.887 293.582 465.677 294.095 465.257 294.515C464.837 294.935 464.323 295.145 463.717 295.145H461.827ZM461.722 293.36H463.822C463.892 293.36 463.938 293.337 463.962 293.29C464.008 293.243 464.032 293.197 464.032 293.15V291.12C464.032 291.05 464.008 291.003 463.962 290.98C463.938 290.933 463.892 290.91 463.822 290.91H461.722C461.652 290.91 461.593 290.933 461.547 290.98C461.523 291.003 461.512 291.05 461.512 291.12V293.15C461.512 293.197 461.523 293.243 461.547 293.29C461.593 293.337 461.652 293.36 461.722 293.36ZM490.715 318C489.875 318 489.117 317.79 488.44 317.37C487.763 316.95 487.215 316.402 486.795 315.725C486.375 315.048 486.165 314.29 486.165 313.45V302.25C486.165 301.41 486.375 300.652 486.795 299.975C487.215 299.298 487.763 298.75 488.44 298.33C489.117 297.91 489.875 297.7 490.715 297.7H502.265C503.105 297.7 503.863 297.91 504.54 298.33C505.24 298.727 505.788 299.275 506.185 299.975C506.605 300.675 506.815 301.433 506.815 302.25V309.74H489.945V313.345C489.945 313.578 490.027 313.788 490.19 313.975C490.377 314.138 490.587 314.22 490.82 314.22H506.815V318H490.715ZM489.945 306.205H503V302.355C503 302.122 502.918 301.923 502.755 301.76C502.592 301.573 502.393 301.48 502.16 301.48H490.82C490.587 301.48 490.377 301.573 490.19 301.76C490.027 301.923 489.945 302.122 489.945 302.355V306.205ZM515.018 318C514.178 318 513.408 317.79 512.708 317.37C512.032 316.95 511.483 316.402 511.063 315.725C510.667 315.048 510.468 314.29 510.468 313.45V291.295H514.248V297.7H522.578V301.48H514.248V313.345C514.248 313.578 514.33 313.788 514.493 313.975C514.68 314.138 514.89 314.22 515.123 314.22H522.578V318H515.018ZM540.038 318C539.198 318 538.428 317.79 537.728 317.37C537.051 316.95 536.503 316.402 536.083 315.725C535.686 315.048 535.488 314.29 535.488 313.45V291.295H539.268V297.7H547.598V301.48H539.268V313.345C539.268 313.578 539.349 313.788 539.513 313.975C539.699 314.138 539.909 314.22 540.143 314.22H547.598V318H540.038ZM555.247 318C554.407 318 553.637 317.79 552.937 317.37C552.26 316.95 551.712 316.402 551.292 315.725C550.895 315.048 550.697 314.29 550.697 313.45V305.96H567.532V302.355C567.532 302.122 567.45 301.923 567.287 301.76C567.124 301.573 566.925 301.48 566.692 301.48H550.697V297.7H566.797C567.637 297.7 568.395 297.91 569.072 298.33C569.772 298.727 570.32 299.275 570.717 299.975C571.137 300.675 571.347 301.433 571.347 302.25V318H555.247ZM555.352 314.22H567.532V309.495H554.477V313.345C554.477 313.578 554.559 313.788 554.722 313.975C554.909 314.138 555.119 314.22 555.352 314.22ZM579.002 318C578.162 318 577.404 317.79 576.727 317.37C576.05 316.95 575.502 316.402 575.082 315.725C574.662 315.048 574.452 314.29 574.452 313.45V291.05H578.232V313.345C578.232 313.578 578.314 313.788 578.477 313.975C578.664 314.138 578.874 314.22 579.107 314.22H582.782V318H579.002ZM595.678 318V295.6C595.678 294.76 595.877 294.002 596.273 293.325C596.693 292.625 597.242 292.077 597.918 291.68C598.618 291.26 599.388 291.05 600.228 291.05H607.788V294.83H600.333C600.1 294.83 599.89 294.923 599.703 295.11C599.54 295.273 599.458 295.472 599.458 295.705V297.7H607.788V301.48H599.458V318H595.678ZM610.306 318V302.25C610.306 301.41 610.516 300.652 610.936 299.975C611.356 299.298 611.905 298.75 612.581 298.33C613.281 297.91 614.04 297.7 614.856 297.7H626.196V301.48H614.961C614.728 301.48 614.518 301.573 614.331 301.76C614.168 301.923 614.086 302.122 614.086 302.355V318H610.306ZM633.177 318C632.337 318 631.567 317.79 630.867 317.37C630.19 316.95 629.642 316.402 629.222 315.725C628.825 315.048 628.627 314.29 628.627 313.45V305.96H645.462V302.355C645.462 302.122 645.38 301.923 645.217 301.76C645.053 301.573 644.855 301.48 644.622 301.48H628.627V297.7H644.727C645.567 297.7 646.325 297.91 647.002 298.33C647.702 298.727 648.25 299.275 648.647 299.975C649.067 300.675 649.277 301.433 649.277 302.25V318H633.177ZM633.282 314.22H645.462V309.495H632.407V313.345C632.407 313.578 632.488 313.788 632.652 313.975C632.838 314.138 633.048 314.22 633.282 314.22ZM667.805 318C666.965 318 666.195 317.79 665.495 317.37C664.818 316.927 664.27 316.355 663.85 315.655C663.453 314.932 663.255 314.162 663.255 313.345V297.42C663.255 296.58 663.453 295.81 663.85 295.11C664.27 294.41 664.818 293.85 665.495 293.43C666.195 293.01 666.965 292.8 667.805 292.8H683.905C684.721 292.8 685.468 293.01 686.145 293.43C686.845 293.85 687.405 294.41 687.825 295.11C688.245 295.81 688.455 296.58 688.455 297.42V313.345C688.455 314.162 688.245 314.932 687.825 315.655C687.405 316.355 686.845 316.927 686.145 317.37C685.468 317.79 684.721 318 683.905 318H667.805ZM668.295 314.08H683.8C684.033 314.08 684.231 313.998 684.395 313.835C684.581 313.672 684.675 313.473 684.675 313.24V300.535L668.295 314.08ZM667.035 310.195L683.38 296.65H667.91C667.676 296.65 667.466 296.743 667.28 296.93C667.116 297.093 667.035 297.292 667.035 297.525V310.195ZM692.514 309.53V305.75H706.514V309.53H692.514ZM716.44 318V297.805L713.535 301.305H708.565L715.705 292.8H720.22V318H716.44ZM728.747 318C727.907 318 727.137 317.79 726.437 317.37C725.76 316.927 725.212 316.355 724.792 315.655C724.395 314.932 724.197 314.162 724.197 313.345V297.42C724.197 296.58 724.395 295.81 724.792 295.11C725.212 294.41 725.76 293.85 726.437 293.43C727.137 293.01 727.907 292.8 728.747 292.8H744.847C745.664 292.8 746.41 293.01 747.087 293.43C747.787 293.85 748.347 294.41 748.767 295.11C749.187 295.81 749.397 296.58 749.397 297.42V313.345C749.397 314.162 749.187 314.932 748.767 315.655C748.347 316.355 747.787 316.927 747.087 317.37C746.41 317.79 745.664 318 744.847 318H728.747ZM729.237 314.08H744.742C744.975 314.08 745.174 313.998 745.337 313.835C745.524 313.672 745.617 313.473 745.617 313.24V300.535L729.237 314.08ZM727.977 310.195L744.322 296.65H728.852C728.619 296.65 728.409 296.743 728.222 296.93C728.059 297.093 727.977 297.292 727.977 297.525V310.195ZM757.937 318C757.097 318 756.327 317.79 755.627 317.37C754.95 316.927 754.402 316.355 753.982 315.655C753.585 314.932 753.387 314.162 753.387 313.345V297.42C753.387 296.58 753.585 295.81 753.982 295.11C754.402 294.41 754.95 293.85 755.627 293.43C756.327 293.01 757.097 292.8 757.937 292.8H774.037C774.853 292.8 775.6 293.01 776.277 293.43C776.977 293.85 777.537 294.41 777.957 295.11C778.377 295.81 778.587 296.58 778.587 297.42V313.345C778.587 314.162 778.377 314.932 777.957 315.655C777.537 316.355 776.977 316.927 776.277 317.37C775.6 317.79 774.853 318 774.037 318H757.937ZM758.427 314.08H773.932C774.165 314.08 774.363 313.998 774.527 313.835C774.713 313.672 774.807 313.473 774.807 313.24V300.535L758.427 314.08ZM757.167 310.195L773.512 296.65H758.042C757.808 296.65 757.598 296.743 757.412 296.93C757.248 297.093 757.167 297.292 757.167 297.525V310.195Z" fill="black"/>
<path d="M170.89 219V215.22H174.67V219H170.89ZM178.615 219V215.22H182.395V219H178.615ZM186.339 219V215.22H190.119V219H186.339ZM194.064 219V192.05H197.844V198.7H210.164C210.98 198.7 211.727 198.91 212.404 199.33C213.104 199.75 213.664 200.298 214.084 200.975C214.504 201.652 214.714 202.41 214.714 203.25V219H210.934V203.355C210.934 203.122 210.84 202.923 210.654 202.76C210.49 202.573 210.292 202.48 210.059 202.48H198.719C198.485 202.48 198.275 202.573 198.089 202.76C197.925 202.923 197.844 203.122 197.844 203.355V219H194.064ZM227.488 219L216.288 198.7H220.663L229.378 214.73L238.093 198.7H242.468L231.268 219H227.488ZM248.753 219C247.913 219 247.155 218.79 246.478 218.37C245.801 217.95 245.253 217.402 244.833 216.725C244.413 216.048 244.203 215.29 244.203 214.45V203.25C244.203 202.41 244.413 201.652 244.833 200.975C245.253 200.298 245.801 199.75 246.478 199.33C247.155 198.91 247.913 198.7 248.753 198.7H260.303C261.143 198.7 261.901 198.91 262.578 199.33C263.278 199.727 263.826 200.275 264.223 200.975C264.643 201.675 264.853 202.433 264.853 203.25V214.45C264.853 215.29 264.643 216.048 264.223 216.725C263.826 217.402 263.278 217.95 262.578 218.37C261.901 218.79 261.143 219 260.303 219H248.753ZM248.858 215.22H260.198C260.431 215.22 260.63 215.138 260.793 214.975C260.956 214.788 261.038 214.578 261.038 214.345V203.355C261.038 203.122 260.956 202.923 260.793 202.76C260.63 202.573 260.431 202.48 260.198 202.48H248.858C248.625 202.48 248.415 202.573 248.228 202.76C248.065 202.923 247.983 203.122 247.983 203.355V214.345C247.983 214.578 248.065 214.788 248.228 214.975C248.415 215.138 248.625 215.22 248.858 215.22ZM267.924 219V203.25C267.924 202.41 268.134 201.652 268.554 200.975C268.974 200.298 269.523 199.75 270.199 199.33C270.899 198.91 271.658 198.7 272.474 198.7H283.814V202.48H272.579C272.346 202.48 272.136 202.573 271.949 202.76C271.786 202.923 271.704 203.122 271.704 203.355V219H267.924ZM300.672 219C299.832 219 299.074 218.79 298.397 218.37C297.72 217.95 297.172 217.402 296.752 216.725C296.332 216.048 296.122 215.29 296.122 214.45V203.25C296.122 202.41 296.332 201.652 296.752 200.975C297.172 200.298 297.72 199.75 298.397 199.33C299.074 198.91 299.832 198.7 300.672 198.7H316.702V202.48H300.777C300.544 202.48 300.334 202.573 300.147 202.76C299.984 202.923 299.902 203.122 299.902 203.355V214.345C299.902 214.578 299.984 214.788 300.147 214.975C300.334 215.138 300.544 215.22 300.777 215.22H316.772V219H300.672ZM324.871 219C324.031 219 323.273 218.79 322.596 218.37C321.919 217.95 321.371 217.402 320.951 216.725C320.531 216.048 320.321 215.29 320.321 214.45V203.25C320.321 202.41 320.531 201.652 320.951 200.975C321.371 200.298 321.919 199.75 322.596 199.33C323.273 198.91 324.031 198.7 324.871 198.7H336.421C337.261 198.7 338.019 198.91 338.696 199.33C339.396 199.727 339.944 200.275 340.341 200.975C340.761 201.675 340.971 202.433 340.971 203.25V214.45C340.971 215.29 340.761 216.048 340.341 216.725C339.944 217.402 339.396 217.95 338.696 218.37C338.019 218.79 337.261 219 336.421 219H324.871ZM324.976 215.22H336.316C336.549 215.22 336.748 215.138 336.911 214.975C337.074 214.788 337.156 214.578 337.156 214.345V203.355C337.156 203.122 337.074 202.923 336.911 202.76C336.748 202.573 336.549 202.48 336.316 202.48H324.976C324.743 202.48 324.533 202.573 324.346 202.76C324.183 202.923 324.101 203.122 324.101 203.355V214.345C324.101 214.578 324.183 214.788 324.346 214.975C324.533 215.138 324.743 215.22 324.976 215.22ZM344.66 219V198.7H370.595C371.458 198.7 372.228 198.91 372.905 199.33C373.581 199.75 374.118 200.298 374.515 200.975C374.935 201.652 375.145 202.41 375.145 203.25V219H371.4V203.355C371.4 203.122 371.306 202.923 371.12 202.76C370.956 202.573 370.758 202.48 370.525 202.48H362.72C362.463 202.48 362.253 202.573 362.09 202.76C361.926 202.923 361.845 203.122 361.845 203.355V219H358.03V203.355C358.03 203.122 357.936 202.923 357.75 202.76C357.586 202.573 357.388 202.48 357.155 202.48H349.315C349.081 202.48 348.883 202.573 348.72 202.76C348.556 202.923 348.475 203.122 348.475 203.355V219H344.66ZM378.156 227.05V198.7H394.256C395.096 198.7 395.854 198.91 396.531 199.33C397.231 199.75 397.779 200.298 398.176 200.975C398.596 201.652 398.806 202.41 398.806 203.25V214.45C398.806 215.29 398.596 216.048 398.176 216.725C397.779 217.402 397.231 217.95 396.531 218.37C395.854 218.79 395.096 219 394.256 219H381.936V227.05H378.156ZM382.811 215.22H394.151C394.384 215.22 394.582 215.138 394.746 214.975C394.932 214.788 395.026 214.578 395.026 214.345V203.355C395.026 203.122 394.932 202.923 394.746 202.76C394.582 202.573 394.384 202.48 394.151 202.48H382.811C382.577 202.48 382.367 202.573 382.181 202.76C382.017 202.923 381.936 203.122 381.936 203.355V214.345C381.936 214.578 382.017 214.788 382.181 214.975C382.367 215.138 382.577 215.22 382.811 215.22ZM405.913 219C405.073 219 404.303 218.79 403.603 218.37C402.926 217.95 402.378 217.402 401.958 216.725C401.561 216.048 401.363 215.29 401.363 214.45V198.7H405.143V214.345C405.143 214.578 405.224 214.788 405.388 214.975C405.574 215.138 405.784 215.22 406.018 215.22H417.358C417.591 215.22 417.789 215.138 417.953 214.975C418.139 214.788 418.233 214.578 418.233 214.345V198.7H422.013V214.45C422.013 215.29 421.803 216.048 421.383 216.725C420.986 217.402 420.438 217.95 419.738 218.37C419.061 218.79 418.303 219 417.463 219H405.913ZM429.599 219C428.759 219 427.989 218.79 427.289 218.37C426.613 217.95 426.064 217.402 425.644 216.725C425.248 216.048 425.049 215.29 425.049 214.45V192.295H428.829V198.7H437.159V202.48H428.829V214.345C428.829 214.578 428.911 214.788 429.074 214.975C429.261 215.138 429.471 215.22 429.704 215.22H437.159V219H429.599ZM444.398 219C443.558 219 442.799 218.79 442.123 218.37C441.446 217.95 440.898 217.402 440.478 216.725C440.058 216.048 439.848 215.29 439.848 214.45V203.25C439.848 202.41 440.058 201.652 440.478 200.975C440.898 200.298 441.446 199.75 442.123 199.33C442.799 198.91 443.558 198.7 444.398 198.7H455.948C456.788 198.7 457.546 198.91 458.223 199.33C458.923 199.727 459.471 200.275 459.868 200.975C460.288 201.675 460.498 202.433 460.498 203.25V210.74H443.628V214.345C443.628 214.578 443.709 214.788 443.873 214.975C444.059 215.138 444.269 215.22 444.503 215.22H460.498V219H444.398ZM443.628 207.205H456.683V203.355C456.683 203.122 456.601 202.923 456.438 202.76C456.274 202.573 456.076 202.48 455.843 202.48H444.503C444.269 202.48 444.059 202.573 443.873 202.76C443.709 202.923 443.628 203.122 443.628 203.355V207.205ZM463.911 219V203.25C463.911 202.41 464.121 201.652 464.541 200.975C464.961 200.298 465.509 199.75 466.186 199.33C466.886 198.91 467.644 198.7 468.461 198.7H479.801V202.48H468.566C468.332 202.48 468.122 202.573 467.936 202.76C467.772 202.923 467.691 203.122 467.691 203.355V219H463.911ZM486.644 219C485.804 219 485.045 218.79 484.369 218.37C483.692 217.95 483.144 217.402 482.724 216.725C482.304 216.048 482.094 215.29 482.094 214.45V203.25C482.094 202.41 482.304 201.652 482.724 200.975C483.144 200.298 483.692 199.75 484.369 199.33C485.045 198.91 485.804 198.7 486.644 198.7H498.194C499.034 198.7 499.792 198.91 500.469 199.33C501.169 199.727 501.717 200.275 502.114 200.975C502.534 201.675 502.744 202.433 502.744 203.25V210.74H485.874V214.345C485.874 214.578 485.955 214.788 486.119 214.975C486.305 215.138 486.515 215.22 486.749 215.22H502.744V219H486.644ZM485.874 207.205H498.929V203.355C498.929 203.122 498.847 202.923 498.684 202.76C498.52 202.573 498.322 202.48 498.089 202.48H486.749C486.515 202.48 486.305 202.573 486.119 202.76C485.955 202.923 485.874 203.122 485.874 203.355V207.205ZM506.432 219V198.7H522.532C523.372 198.7 524.13 198.91 524.807 199.33C525.507 199.75 526.055 200.298 526.452 200.975C526.872 201.652 527.082 202.41 527.082 203.25V219H523.302V203.355C523.302 203.122 523.209 202.923 523.022 202.76C522.859 202.573 522.66 202.48 522.427 202.48H511.087C510.854 202.48 510.644 202.573 510.457 202.76C510.294 202.923 510.212 203.122 510.212 203.355V219H506.432ZM545.293 219C544.453 219 543.695 218.79 543.018 218.37C542.342 217.95 541.793 217.402 541.373 216.725C540.953 216.048 540.743 215.29 540.743 214.45V213.925H544.523V214.345C544.523 214.578 544.605 214.788 544.768 214.975C544.955 215.138 545.165 215.22 545.398 215.22H556.738C556.972 215.22 557.17 215.138 557.333 214.975C557.497 214.788 557.578 214.578 557.578 214.345V211.615C557.578 211.382 557.497 211.183 557.333 211.02C557.17 210.833 556.972 210.74 556.738 210.74H545.293C544.453 210.74 543.695 210.542 543.018 210.145C542.342 209.725 541.793 209.177 541.373 208.5C540.953 207.8 540.743 207.03 540.743 206.19V203.25C540.743 202.41 540.953 201.652 541.373 200.975C541.793 200.298 542.342 199.75 543.018 199.33C543.695 198.91 544.453 198.7 545.293 198.7H556.843C557.683 198.7 558.442 198.91 559.118 199.33C559.818 199.75 560.367 200.298 560.763 200.975C561.183 201.652 561.393 202.41 561.393 203.25V203.775H557.578V203.355C557.578 203.122 557.497 202.923 557.333 202.76C557.17 202.573 556.972 202.48 556.738 202.48H545.398C545.165 202.48 544.955 202.573 544.768 202.76C544.605 202.923 544.523 203.122 544.523 203.355V206.085C544.523 206.318 544.605 206.528 544.768 206.715C544.955 206.878 545.165 206.96 545.398 206.96H556.843C557.683 206.96 558.442 207.17 559.118 207.59C559.818 207.987 560.367 208.535 560.763 209.235C561.183 209.912 561.393 210.67 561.393 211.51V214.45C561.393 215.29 561.183 216.048 560.763 216.725C560.367 217.402 559.818 217.95 559.118 218.37C558.442 218.79 557.683 219 556.843 219H545.293ZM564.298 219V192.05H568.078V206.96H572.628L580.223 198.7H584.563V199.4L575.988 208.85L584.563 218.3V219H580.223L572.628 210.74H568.078V219H564.298ZM591.405 219C590.565 219 589.795 218.79 589.095 218.37C588.418 217.95 587.87 217.402 587.45 216.725C587.053 216.048 586.855 215.29 586.855 214.45V206.96H603.69V203.355C603.69 203.122 603.608 202.923 603.445 202.76C603.282 202.573 603.083 202.48 602.85 202.48H586.855V198.7H602.955C603.795 198.7 604.553 198.91 605.23 199.33C605.93 199.727 606.478 200.275 606.875 200.975C607.295 201.675 607.505 202.433 607.505 203.25V219H591.405ZM591.51 215.22H603.69V210.495H590.635V214.345C590.635 214.578 590.717 214.788 590.88 214.975C591.067 215.138 591.277 215.22 591.51 215.22ZM615.16 219C614.32 219 613.562 218.79 612.885 218.37C612.208 217.95 611.66 217.402 611.24 216.725C610.82 216.048 610.61 215.29 610.61 214.45V192.05H614.39V214.345C614.39 214.578 614.472 214.788 614.635 214.975C614.822 215.138 615.032 215.22 615.265 215.22H618.94V219H615.16ZM634.986 227.015V223.2H647.411C647.645 223.2 647.843 223.107 648.006 222.92C648.193 222.757 648.286 222.558 648.286 222.325V219H635.966C635.15 219 634.391 218.802 633.691 218.405C632.991 217.985 632.431 217.425 632.011 216.725C631.615 216.025 631.416 215.267 631.416 214.45V203.25C631.416 202.41 631.626 201.652 632.046 200.975C632.466 200.298 633.015 199.75 633.691 199.33C634.391 198.91 635.15 198.7 635.966 198.7H647.516C648.356 198.7 649.115 198.91 649.791 199.33C650.491 199.75 651.04 200.298 651.436 200.975C651.856 201.652 652.066 202.41 652.066 203.25V222.465C652.066 223.305 651.856 224.063 651.436 224.74C651.04 225.44 650.491 225.988 649.791 226.385C649.115 226.805 648.356 227.015 647.516 227.015H634.986ZM636.071 215.22H647.411C647.645 215.22 647.843 215.138 648.006 214.975C648.193 214.788 648.286 214.578 648.286 214.345V203.355C648.286 203.122 648.193 202.923 648.006 202.76C647.843 202.573 647.645 202.48 647.411 202.48H636.071C635.838 202.48 635.628 202.573 635.441 202.76C635.278 202.923 635.196 203.122 635.196 203.355V214.345C635.196 214.578 635.278 214.788 635.441 214.975C635.628 215.138 635.838 215.22 636.071 215.22ZM660.243 219C659.403 219 658.633 218.79 657.933 218.37C657.256 217.95 656.72 217.402 656.323 216.725C655.926 216.048 655.728 215.29 655.728 214.45V206.96H672.563V203.355C672.563 203.122 672.47 202.923 672.283 202.76C672.12 202.573 671.921 202.48 671.688 202.48H655.728V198.7H688.663C689.526 198.7 690.296 198.91 690.973 199.33C691.65 199.75 692.186 200.298 692.583 200.975C693.003 201.652 693.213 202.41 693.213 203.25V210.74H676.378V214.45C676.378 214.66 676.46 214.847 676.623 215.01C676.81 215.15 677.008 215.22 677.218 215.22H693.213V219H660.243ZM660.348 215.22H672.563V210.495H659.508V214.345C659.508 214.578 659.59 214.788 659.753 214.975C659.916 215.138 660.115 215.22 660.348 215.22ZM676.378 207.205H689.433V203.355C689.433 203.122 689.34 202.923 689.153 202.76C688.99 202.573 688.791 202.48 688.558 202.48H677.218C676.985 202.48 676.786 202.573 676.623 202.76C676.46 202.923 676.378 203.122 676.378 203.355V207.205ZM701.499 219C700.659 219 699.889 218.79 699.189 218.37C698.512 217.95 697.964 217.402 697.544 216.725C697.147 216.048 696.949 215.29 696.949 214.45V192.295H700.729V198.7H709.059V202.48H700.729V214.345C700.729 214.578 700.81 214.788 700.974 214.975C701.16 215.138 701.37 215.22 701.604 215.22H709.059V219H701.499ZM716.504 219C715.664 219 714.894 218.79 714.194 218.37C713.517 217.95 712.969 217.402 712.549 216.725C712.152 216.048 711.954 215.29 711.954 214.45V192.295H715.734V198.7H724.064V202.48H715.734V214.345C715.734 214.578 715.815 214.788 715.979 214.975C716.165 215.138 716.375 215.22 716.609 215.22H724.064V219H716.504ZM731.302 219C730.462 219 729.703 218.79 729.027 218.37C728.35 217.95 727.802 217.402 727.382 216.725C726.962 216.048 726.752 215.29 726.752 214.45V203.25C726.752 202.41 726.962 201.652 727.382 200.975C727.802 200.298 728.35 199.75 729.027 199.33C729.703 198.91 730.462 198.7 731.302 198.7H742.852C743.692 198.7 744.45 198.91 745.127 199.33C745.827 199.727 746.375 200.275 746.772 200.975C747.192 201.675 747.402 202.433 747.402 203.25V210.74H730.532V214.345C730.532 214.578 730.613 214.788 730.777 214.975C730.963 215.138 731.173 215.22 731.407 215.22H747.402V219H731.302ZM730.532 207.205H743.587V203.355C743.587 203.122 743.505 202.923 743.342 202.76C743.178 202.573 742.98 202.48 742.747 202.48H731.407C731.173 202.48 730.963 202.573 730.777 202.76C730.613 202.923 730.532 203.122 730.532 203.355V207.205ZM764.707 219C763.867 219 763.097 218.802 762.397 218.405C761.72 217.985 761.172 217.425 760.752 216.725C760.355 216.025 760.157 215.267 760.157 214.45V203.25C760.157 202.41 760.355 201.652 760.752 200.975C761.172 200.298 761.72 199.75 762.397 199.33C763.097 198.91 763.867 198.7 764.707 198.7H777.027V192.05H780.807V219H764.707ZM764.847 215.22H776.187C776.42 215.22 776.618 215.138 776.782 214.975C776.945 214.788 777.027 214.578 777.027 214.345V203.355C777.027 203.122 776.945 202.923 776.782 202.76C776.618 202.573 776.42 202.48 776.187 202.48H764.847C764.613 202.48 764.403 202.573 764.217 202.76C764.053 202.923 763.972 203.122 763.972 203.355V214.345C763.972 214.578 764.053 214.788 764.217 214.975C764.403 215.138 764.613 215.22 764.847 215.22ZM784.516 219V198.7H788.296V219H784.516ZM784.516 195.83V192.05H788.296V195.83H784.516ZM796.894 219C796.054 219 795.284 218.79 794.584 218.37C793.908 217.95 793.359 217.402 792.939 216.725C792.543 216.048 792.344 215.29 792.344 214.45V192.295H796.124V198.7H804.454V202.48H796.124V214.345C796.124 214.578 796.206 214.788 796.369 214.975C796.556 215.138 796.766 215.22 796.999 215.22H804.454V219H796.894ZM821.914 219C821.074 219 820.304 218.79 819.604 218.37C818.927 217.95 818.379 217.402 817.959 216.725C817.562 216.048 817.364 215.29 817.364 214.45V192.295H821.144V198.7H829.474V202.48H821.144V214.345C821.144 214.578 821.225 214.788 821.389 214.975C821.575 215.138 821.785 215.22 822.019 215.22H829.474V219H821.914ZM837.123 219C836.283 219 835.513 218.79 834.813 218.37C834.136 217.95 833.588 217.402 833.168 216.725C832.771 216.048 832.573 215.29 832.573 214.45V206.96H849.408V203.355C849.408 203.122 849.326 202.923 849.163 202.76C849 202.573 848.801 202.48 848.568 202.48H832.573V198.7H848.673C849.513 198.7 850.271 198.91 850.948 199.33C851.648 199.727 852.196 200.275 852.593 200.975C853.013 201.675 853.223 202.433 853.223 203.25V219H837.123ZM837.228 215.22H849.408V210.495H836.353V214.345C836.353 214.578 836.435 214.788 836.598 214.975C836.785 215.138 836.995 215.22 837.228 215.22ZM860.878 219C860.038 219 859.279 218.79 858.603 218.37C857.926 217.95 857.378 217.402 856.958 216.725C856.538 216.048 856.328 215.29 856.328 214.45V192.05H860.108V214.345C860.108 214.578 860.189 214.788 860.353 214.975C860.539 215.138 860.749 215.22 860.983 215.22H864.658V219H860.878Z" fill="black"/>
</svg>
